<svg width="15" height="15" viewBox="0 0 15 15" fill="none" xmlns="http://www.w3.org/2000/svg">
<path d="M13.8967 13.343L10.3967 9.843C11.2784 8.76317 11.7115 7.38588 11.6066 5.99576C11.5017 4.60565 10.8667 3.30898 9.83287 2.37374C8.79907 1.43849 7.44547 0.936167 6.05183 0.970575C4.65819 1.00498 3.33103 1.57349 2.34464 2.55861C1.35825 3.54374 0.788035 4.87016 0.751835 6.26376C0.715635 7.65736 1.21622 9.0116 2.15013 10.0466C3.08405 11.0816 4.3799 11.7183 5.76988 11.825C7.15985 11.9317 8.5377 11.5003 9.61866 10.62L13.1187 14.12C13.1697 14.1711 13.2304 14.2116 13.2971 14.2393C13.3639 14.2669 13.4354 14.2811 13.5077 14.2811C13.5799 14.2811 13.6514 14.2669 13.7182 14.2393C13.7849 14.2116 13.8456 14.1711 13.8967 14.12C13.9477 14.0689 13.9883 14.0083 14.0159 13.9415C14.0436 13.8748 14.0578 13.8032 14.0578 13.731C14.0578 13.6588 14.0436 13.5872 14.0159 13.5205C13.9883 13.4537 13.9477 13.3931 13.8967 13.342V13.343ZM1.87567 6.418C1.87586 5.56382 2.12934 4.72889 2.60403 4.01876C3.07873 3.30864 3.75334 2.75522 4.54255 2.42848C5.33176 2.10174 6.20014 2.01635 7.03787 2.18311C7.87561 2.34987 8.64509 2.7613 9.24901 3.36536C9.85294 3.96942 10.2642 4.739 10.4307 5.57677C10.5973 6.41455 10.5117 7.28291 10.1848 8.07204C9.85788 8.86118 9.3043 9.53565 8.59407 10.0102C7.88383 10.4847 7.04884 10.738 6.19467 10.738C5.04935 10.7369 3.95126 10.2814 3.14149 9.47147C2.33172 8.66151 1.87646 7.56332 1.87567 6.418Z" fill="white"/>
</svg>
